<?xml version="1.0" encoding="UTF-8"?>
<svg width="245px" height="102px" viewBox="0 0 245 102" version="1.1" xmlns="http://www.w3.org/2000/svg" xmlns:xlink="http://www.w3.org/1999/xlink">
    <!-- Generator: sketchtool 46.2 (44496) - http://www.bohemiancoding.com/sketch -->
    <title>4E9A8B5A-60A4-400B-A535-F64983876778</title>
    <desc>Created with sketchtool.</desc>
    <defs></defs>
    <g id="Symbols" stroke="none" stroke-width="1" fill="none" fill-rule="evenodd">
        <g id="Logo-Horizontal" fill="#A79683">
            <polygon id="Fill-1" points="16.0003583 1 0 16.7992924 0 64.190094 16.0003583 80 32 64.190094 32 45.6171339 24.4917923 53.0296193 24.4917923 61.1234931 16.0003583 69.5074698 7.50820774 61.1234931 7.50820774 19.8658934 16.0003583 11.4805016 24.4917923 19.8658934 24.4917923 26.6649172 32 19.2587998 32 16.7992924"></polygon>
            <polygon id="Fill-2" points="16 38.8021229 16 57.3774543 23.5080396 49.9635973 23.5080396 41.8697062 32.0028665 33.4814403 40.4919604 41.8314941 40.4919604 83.133832 31.9992834 91.5192673 23.5080396 83.1281709 23.5080396 76.3405679 16 83.7544249 16 86.1950466 31.9992834 102 48 86.2014153 48 38.7964618 32.0028665 23"></polygon>
            <polygon id="Fill-3" points="192 39 170 39 170 45.605539 177.292017 45.605539 177.292017 77 184.707983 77 184.707983 45.605539 192 45.605539"></polygon>
            <polygon id="Fill-4" points="79.5808557 57.4759563 85.4720812 51.6359956 85.4720812 39 78.0529369 39 78.0529369 50.7863115 73.9477883 54.8672392 72.4191443 54.8672392 72.4191443 39 65 39 65 77 72.4191443 77 72.4191443 61.30241 73.9477883 61.30241 79.5808557 66.8893345 79.5808557 77 87 77 87 64.8269456"></polygon>
            <path d="M152.155546,54.8844917 L157.845153,54.8844917 L157.845153,45.605539 L152.155546,45.605539 L152.155546,54.8844917 Z M159.832844,39 L145,39 L145,77 L152.155546,77 L152.155546,61.30241 L159.832844,61.30241 L165,56.0102153 L165,44.2921948 L159.832844,39 Z" id="Fill-5"></path>
            <polygon id="Fill-6" points="132.702828 39 132.702828 53.5977451 131.425413 54.8844917 128.574587 54.8844917 127.297172 53.5970262 127.297172 39 120 39 120 55.6622905 126.351414 62.0564867 126.351414 77 133.648586 77 133.648586 62.0572056 140 55.6558208 140 39"></polygon>
            <path d="M205.9982,70.3490935 L202.367418,66.7643086 L202.364538,49.2065411 L205.9982,45.6189122 L209.632582,49.207252 L209.632582,66.7607536 L205.9982,70.3490935 Z M207.705574,38 L204.294426,38 L195,47.1773907 L195,68.8226093 L204.294426,78 L207.705574,78 L217,68.8226093 L217,47.1773907 L207.705574,38 Z" id="Fill-7"></path>
            <polygon id="Fill-8" points="237.820306 39 237.820306 59.7565502 229.178992 39 222 39 222 77 229.178992 77 229.178992 56.2441687 237.820306 77 245 77 245 39"></polygon>
            <path d="M105.15914,45.6098521 L105.15914,54.8844917 L99.3340502,54.8844917 L99.3340502,45.605539 L105.15914,45.605539 L105.15914,45.6098521 Z M113.993548,65.0505089 L113.998566,65.0490712 L109.969892,61.0098369 L109.969892,58.9107866 L112.49319,56.3854565 L112.49319,44.2965079 L107.212186,39 L92,39 L92,77 L99.3340502,77 L99.3340502,61.3031289 L100.839427,61.2671863 L106.66595,67.1100223 L106.66595,77 L114,77 L114,65.0490712 L113.993548,65.0505089 Z" id="Fill-9"></path>
            <path d="M98,86.2357509 L97.971831,87.3403134 C97.5016767,87.2515601 96.7323944,87.1045625 96.0342052,87.1045625 C94.7384306,87.1045625 94.2112676,87.6051865 94.2112676,88.8865622 L94.2112676,93.0981833 C94.2112676,94.3649979 94.7243461,94.865622 96.0342052,94.865622 C96.7323944,94.865622 97.5016767,94.7186243 97.971831,94.629871 L98,95.7642491 C97.3735748,95.8668701 96.6753856,96 96.0342052,96 C93.7833669,96 93,94.9987519 93,93.0246845 L93,88.9746221 C93,86.9714325 93.8122066,86 96.0342052,86 C96.6753856,86 97.3735748,86.1331299 98,86.2357509 Z" id="Fill-10"></path>
            <path d="M114.387271,93.5188327 L117.533823,93.5188327 L115.968363,88.1903393 L114.387271,93.5188327 Z M120,97 L118.545455,97 L117.865823,94.6789822 L114.055271,94.6789822 L113.37564,97 L112,97 L115.162185,87 L116.822183,87 L120,97 Z" id="Fill-12"></path>
            <path d="M135.256494,87.1250126 L135.256494,90.8277471 C135.921614,90.9180921 136.261132,90.9477366 136.615955,90.9477366 C138.034555,90.9477366 138.744202,90.3174389 138.744202,89.0434328 L138.744202,88.7893374 C138.744202,87.6797875 138.093692,87.0805459 136.527597,87.0805459 C135.877087,87.0805459 135.581401,87.0953681 135.256494,87.1250126 M140,88.7434591 L140,89.1041334 C140,90.9336202 138.950835,92.0417584 136.675093,92.0417584 C136.246521,92.0417584 135.81795,92.0114081 135.256494,91.9217689 L135.256494,96 L134,96 L134,86.0902797 C134.754174,86.045813 135.507653,86.0161685 136.556818,86.0006405 C138.936224,85.9702902 140,87.0205511 140,88.7434591" id="Fill-14"></path>
            <polygon id="Fill-16" points="154 97 156 97 156 87 154 87"></polygon>
            <polygon id="Fill-18" points="177 88.1752444 174.139617 88.1752444 174.139617 97 172.860383 97 172.860383 88.1752444 170 88.1752444 170 87 177 87"></polygon>
            <path d="M192.386526,93.5188327 L195.533823,93.5188327 L193.968363,88.1903393 L192.386526,93.5188327 Z M198,97 L196.545455,97 L195.865079,94.6789822 L192.054527,94.6789822 L191.374895,97 L190,97 L193.16144,87 L194.822183,87 L198,97 Z" id="Fill-19"></path>
            <polygon id="Fill-20" points="213.232428 95.8549454 217 95.8549454 217 97 212 97 212 87 213.232428 87"></polygon>
        </g>
    </g>
</svg>